<mxfile host="app.diagrams.net" agent="Mozilla/5.0 (Windows NT 10.0; Win64; x64) AppleWebKit/537.36 (KHTML, like Gecko) Chrome/128.0.0.0 Safari/537.36 Edg/128.0.0.0" version="24.7.7">
  <diagram name="Page-1" id="QvX3eVz_m-E9bTkHT1Fa">
    <mxGraphModel dx="996" dy="663" grid="1" gridSize="10" guides="1" tooltips="1" connect="1" arrows="1" fold="1" page="1" pageScale="1" pageWidth="850" pageHeight="1100" math="0" shadow="0">
      <root>
        <mxCell id="0" />
        <mxCell id="1" parent="0" />
        <mxCell id="5AfWh6xTiVxqOCnljWEE-5" style="edgeStyle=orthogonalEdgeStyle;rounded=0;orthogonalLoop=1;jettySize=auto;html=1;exitX=1;exitY=0.25;exitDx=0;exitDy=0;entryX=0;entryY=0.25;entryDx=0;entryDy=0;dashed=1;dashPattern=8 8;flowAnimation=1;" edge="1" parent="1" source="5AfWh6xTiVxqOCnljWEE-1" target="5AfWh6xTiVxqOCnljWEE-2">
          <mxGeometry relative="1" as="geometry" />
        </mxCell>
        <mxCell id="5AfWh6xTiVxqOCnljWEE-6" value="Resource&lt;div&gt;Request&lt;/div&gt;" style="edgeLabel;html=1;align=center;verticalAlign=middle;resizable=0;points=[];" vertex="1" connectable="0" parent="5AfWh6xTiVxqOCnljWEE-5">
          <mxGeometry x="0.0255" y="-2" relative="1" as="geometry">
            <mxPoint y="-17" as="offset" />
          </mxGeometry>
        </mxCell>
        <mxCell id="5AfWh6xTiVxqOCnljWEE-1" value="Browser-Based Application" style="rounded=0;whiteSpace=wrap;html=1;" vertex="1" parent="1">
          <mxGeometry x="30" y="160" width="120" height="340" as="geometry" />
        </mxCell>
        <mxCell id="5AfWh6xTiVxqOCnljWEE-7" style="edgeStyle=orthogonalEdgeStyle;rounded=0;orthogonalLoop=1;jettySize=auto;html=1;exitX=0;exitY=0.5;exitDx=0;exitDy=0;entryX=1;entryY=0.5;entryDx=0;entryDy=0;dashed=1;dashPattern=8 8;flowAnimation=1;" edge="1" parent="1" source="5AfWh6xTiVxqOCnljWEE-2" target="5AfWh6xTiVxqOCnljWEE-1">
          <mxGeometry relative="1" as="geometry" />
        </mxCell>
        <mxCell id="5AfWh6xTiVxqOCnljWEE-8" value="Resource&lt;div&gt;Response&lt;/div&gt;" style="edgeLabel;html=1;align=center;verticalAlign=middle;resizable=0;points=[];" vertex="1" connectable="0" parent="5AfWh6xTiVxqOCnljWEE-7">
          <mxGeometry x="0.1018" y="2" relative="1" as="geometry">
            <mxPoint x="11" y="-22" as="offset" />
          </mxGeometry>
        </mxCell>
        <mxCell id="5AfWh6xTiVxqOCnljWEE-9" style="edgeStyle=orthogonalEdgeStyle;rounded=0;orthogonalLoop=1;jettySize=auto;html=1;exitX=1.002;exitY=0.154;exitDx=0;exitDy=0;entryX=0;entryY=0.25;entryDx=0;entryDy=0;exitPerimeter=0;dashed=1;dashPattern=8 8;flowAnimation=1;" edge="1" parent="1" source="5AfWh6xTiVxqOCnljWEE-2" target="5AfWh6xTiVxqOCnljWEE-3">
          <mxGeometry relative="1" as="geometry" />
        </mxCell>
        <mxCell id="5AfWh6xTiVxqOCnljWEE-11" value="Redirect with Authorization&lt;div&gt;Code&lt;/div&gt;" style="edgeLabel;html=1;align=center;verticalAlign=middle;resizable=0;points=[];" vertex="1" connectable="0" parent="5AfWh6xTiVxqOCnljWEE-9">
          <mxGeometry x="-0.0472" y="1" relative="1" as="geometry">
            <mxPoint y="-21" as="offset" />
          </mxGeometry>
        </mxCell>
        <mxCell id="5AfWh6xTiVxqOCnljWEE-13" style="edgeStyle=orthogonalEdgeStyle;rounded=0;orthogonalLoop=1;jettySize=auto;html=1;entryX=0;entryY=0.75;entryDx=0;entryDy=0;exitX=0.975;exitY=0.462;exitDx=0;exitDy=0;exitPerimeter=0;dashed=1;dashPattern=8 8;flowAnimation=1;" edge="1" parent="1" source="5AfWh6xTiVxqOCnljWEE-2" target="5AfWh6xTiVxqOCnljWEE-3">
          <mxGeometry relative="1" as="geometry">
            <mxPoint x="382" y="308" as="sourcePoint" />
          </mxGeometry>
        </mxCell>
        <mxCell id="5AfWh6xTiVxqOCnljWEE-14" value="Token Request with&lt;div&gt;Authorization Code&lt;/div&gt;" style="edgeLabel;html=1;align=center;verticalAlign=middle;resizable=0;points=[];" vertex="1" connectable="0" parent="5AfWh6xTiVxqOCnljWEE-13">
          <mxGeometry x="-0.1169" y="-3" relative="1" as="geometry">
            <mxPoint x="7" y="-20" as="offset" />
          </mxGeometry>
        </mxCell>
        <mxCell id="5AfWh6xTiVxqOCnljWEE-17" style="edgeStyle=orthogonalEdgeStyle;rounded=0;orthogonalLoop=1;jettySize=auto;html=1;exitX=0.982;exitY=0.799;exitDx=0;exitDy=0;entryX=0;entryY=0.25;entryDx=0;entryDy=0;exitPerimeter=0;dashed=1;dashPattern=8 8;flowAnimation=1;" edge="1" parent="1" source="5AfWh6xTiVxqOCnljWEE-2" target="5AfWh6xTiVxqOCnljWEE-4">
          <mxGeometry relative="1" as="geometry" />
        </mxCell>
        <mxCell id="5AfWh6xTiVxqOCnljWEE-19" value="Resource request with&lt;div&gt;Token&lt;/div&gt;" style="edgeLabel;html=1;align=center;verticalAlign=middle;resizable=0;points=[];" vertex="1" connectable="0" parent="5AfWh6xTiVxqOCnljWEE-17">
          <mxGeometry x="-0.0555" y="-1" relative="1" as="geometry">
            <mxPoint y="-23" as="offset" />
          </mxGeometry>
        </mxCell>
        <mxCell id="5AfWh6xTiVxqOCnljWEE-2" value="Service Worker" style="rounded=0;whiteSpace=wrap;html=1;" vertex="1" parent="1">
          <mxGeometry x="260" y="160" width="120" height="340" as="geometry" />
        </mxCell>
        <mxCell id="5AfWh6xTiVxqOCnljWEE-10" style="edgeStyle=orthogonalEdgeStyle;rounded=0;orthogonalLoop=1;jettySize=auto;html=1;exitX=0.009;exitY=0.403;exitDx=0;exitDy=0;entryX=1;entryY=0.25;entryDx=0;entryDy=0;exitPerimeter=0;dashed=1;dashPattern=8 8;flowAnimation=1;" edge="1" parent="1" source="5AfWh6xTiVxqOCnljWEE-3" target="5AfWh6xTiVxqOCnljWEE-2">
          <mxGeometry relative="1" as="geometry" />
        </mxCell>
        <mxCell id="5AfWh6xTiVxqOCnljWEE-12" value="Authorization Code" style="edgeLabel;html=1;align=center;verticalAlign=middle;resizable=0;points=[];" vertex="1" connectable="0" parent="5AfWh6xTiVxqOCnljWEE-10">
          <mxGeometry x="0.2393" y="-1" relative="1" as="geometry">
            <mxPoint x="18" y="21" as="offset" />
          </mxGeometry>
        </mxCell>
        <mxCell id="5AfWh6xTiVxqOCnljWEE-15" style="edgeStyle=orthogonalEdgeStyle;rounded=0;orthogonalLoop=1;jettySize=auto;html=1;exitX=-0.022;exitY=0.882;exitDx=0;exitDy=0;entryX=1.008;entryY=0.542;entryDx=0;entryDy=0;entryPerimeter=0;exitPerimeter=0;dashed=1;dashPattern=8 8;flowAnimation=1;" edge="1" parent="1" source="5AfWh6xTiVxqOCnljWEE-3" target="5AfWh6xTiVxqOCnljWEE-2">
          <mxGeometry relative="1" as="geometry" />
        </mxCell>
        <mxCell id="5AfWh6xTiVxqOCnljWEE-16" value="Token Response" style="edgeLabel;html=1;align=center;verticalAlign=middle;resizable=0;points=[];" vertex="1" connectable="0" parent="5AfWh6xTiVxqOCnljWEE-15">
          <mxGeometry x="-0.2139" y="3" relative="1" as="geometry">
            <mxPoint x="-16" y="12" as="offset" />
          </mxGeometry>
        </mxCell>
        <mxCell id="5AfWh6xTiVxqOCnljWEE-3" value="Authorization Server" style="rounded=0;whiteSpace=wrap;html=1;" vertex="1" parent="1">
          <mxGeometry x="540" y="160" width="100" height="210" as="geometry" />
        </mxCell>
        <mxCell id="5AfWh6xTiVxqOCnljWEE-18" style="edgeStyle=orthogonalEdgeStyle;rounded=0;orthogonalLoop=1;jettySize=auto;html=1;exitX=0;exitY=0.5;exitDx=0;exitDy=0;entryX=0.975;entryY=0.869;entryDx=0;entryDy=0;entryPerimeter=0;dashed=1;dashPattern=8 8;flowAnimation=1;" edge="1" parent="1" source="5AfWh6xTiVxqOCnljWEE-4" target="5AfWh6xTiVxqOCnljWEE-2">
          <mxGeometry relative="1" as="geometry" />
        </mxCell>
        <mxCell id="5AfWh6xTiVxqOCnljWEE-20" value="Resource Response" style="edgeLabel;html=1;align=center;verticalAlign=middle;resizable=0;points=[];" vertex="1" connectable="0" parent="5AfWh6xTiVxqOCnljWEE-18">
          <mxGeometry x="-0.0153" y="4" relative="1" as="geometry">
            <mxPoint x="-3" y="15" as="offset" />
          </mxGeometry>
        </mxCell>
        <mxCell id="5AfWh6xTiVxqOCnljWEE-4" value="Resource Server" style="rounded=0;whiteSpace=wrap;html=1;" vertex="1" parent="1">
          <mxGeometry x="540" y="410" width="100" height="90" as="geometry" />
        </mxCell>
      </root>
    </mxGraphModel>
  </diagram>
</mxfile>
